<?xml version="1.0" standalone="no"?><!DOCTYPE svg PUBLIC "-//W3C//DTD SVG 1.1//EN" "http://www.w3.org/Graphics/SVG/1.1/DTD/svg11.dtd"><svg t="1711294496690" class="icon" viewBox="0 0 1024 1024" version="1.1" xmlns="http://www.w3.org/2000/svg" p-id="3807" xmlns:xlink="http://www.w3.org/1999/xlink" width="32" height="32"><path d="M355.53333337 144.6c0 3.8-0.4 7.5-0.9 11.2l0.9 0 0 714-0.9 0c0.5 3.7 0.9 7.4 0.9 11.2 0 43.1-35 78.1-78.1 78.1S199.33333337 924.1 199.33333337 881c0-3.8 0.4-7.5 0.9-11.2L199.33333337 869.8l0-714 0.9 0c-0.5-3.7-0.9-7.4-0.9-11.2 0-43.1 35-78.1 78.1-78.1S355.53333337 101.5 355.53333337 144.6z" fill="#707070" p-id="3808"></path></svg>